<?xml version="1.0" encoding="UTF-8"?>
<!DOCTYPE svg PUBLIC "-//W3C//DTD SVG 1.1//EN" "http://www.w3.org/Graphics/SVG/1.1/DTD/svg11.dtd">
<!-- Creator: CorelDRAW 2021 (64-Bit) -->
<svg xmlns="http://www.w3.org/2000/svg" xml:space="preserve" width="160mm" height="160mm" version="1.1" shape-rendering="geometricPrecision" text-rendering="geometricPrecision" image-rendering="optimizeQuality" fill-rule="evenodd" clip-rule="evenodd"
viewBox="0 0 16000 16000"
 xmlns:xlink="http://www.w3.org/1999/xlink"
 xmlns:xodm="http://www.corel.com/coreldraw/odm/2003">
 <g id="Слой_x0020_1">
  <metadata id="CorelCorpID_0Corel-Layer"/>
  <path fill="#2B2A29" d="M500 500l12999.95 0c1100.05,0 2000.05,900 2000.05,2000.05l0 12999.95 -12999.95 0c-1100.05,0 -2000.05,-900 -2000.05,-2000.05l0 -12999.95zm998.92 7500l6501.08 -2787.84 6501.08 2753.59 -6501.08 2822.09 -6501.08 -2787.84zm1165.75 0l5346.7 -2296.51 5335.78 2250.74 -5324.27 2273.77 -5358.21 -2228zm4434.74 -871.95l41.78 580.51c-40.75,-27.9 -116.63,-54.48 -227.66,-79.43 -110.87,-24.95 -223.96,-37.05 -339.12,-37.05 -169.05,0 -313.14,34.1 -432.73,102.75 -118.25,69.24 -185.87,185.88 -202.7,348.87 0,7.68 -1.04,21.41 -3.1,40.16 -2.07,17.86 -3.1,30.56 -3.1,38.83 0,77.36 17.86,147.63 53.59,210.82 36.02,63.05 86.51,112.95 152.21,149.71 66.14,36.61 142.03,54.92 227.66,54.92 37.65,0 87.99,-8.12 151.62,-24.95l0 -149.71 -183.21 0 0 -495.47 873.72 0 0 1067.87c-302.37,53 -556.45,79.43 -762.26,79.43 -205.66,0 -386.96,-21.86 -543.75,-66.15 -156.94,-44.44 -287.74,-109.1 -393.16,-193.55 -105.41,-84.6 -184.4,-186.47 -237.4,-306.64 -52.41,-119.59 -78.84,-256.6 -78.84,-410.88 0,-9.74 1.04,-27.02 3.1,-51.38 1.92,-24.51 2.96,-41.78 2.96,-53 20.96,-157.82 67.76,-294.83 141.58,-409.4 73.82,-115.16 166.54,-207.73 278,-278.59 112.06,-70.72 237.85,-123.13 376.92,-156.79 138.93,-31.6 287.16,-47.39 444.54,-47.39 197.98,0 417.52,29.08 659.35,86.51zm275.05 -37.65l757.68 0 0 1888.73 -757.68 0 0 -1888.73zm899.26 0l1001.58 0 177.75 1087.8 243.9 -1087.8 964.52 0 0 1888.73 -634.99 0 0 -1179.92 -262.21 1179.92 -622.88 0 -262.21 -1197.63 0 1197.63 -605.46 0 0 -1888.73z"/>
 </g>
</svg>
